# xmcd CD database file
#
# Track frame offsets:
#	150
#	24132
#	46447
#	70322
#
# Disc length: 1230 seconds
#
# Revision: 0
# Processed by: cddbd v1.5.1PL0 Copyright (c) Steve Scherf et al.
# Submitted via: CDex 1.51
#
DISCID=2b04cc04
DTITLE=古内東子 - Beautiful Days
DYEAR=2005
DGENRE=Pop
TTITLE0=Beautiful Days
TTITLE1=いつもどおり
TTITLE2=Beautiful Days ＜Instrumental＞
TTITLE3=いつもどおり ＜Instrumental＞
EXTD=YEAR: 2005/06/29
EXTT0=
EXTT1=
EXTT2=
EXTT3=
PLAYORDER=
